<svg id="visual" viewBox="0 0 540 960" width="540" height="960" xmlns="http://www.w3.org/2000/svg" xmlns:xlink="http://www.w3.org/1999/xlink" version="1.1"><g stroke-width="1" stroke-linejoin="bevel"><path d="M325 514.3L460 423.7L345 403.7Z" fill="#cccccc" stroke="#cccccc"></path><path d="M325 514.3L449 534.3L460 423.7Z" fill="#d6d6d6" stroke="#d6d6d6"></path><path d="M431 326L344 342L345 403.7Z" fill="#a9a9a9" stroke="#a9a9a9"></path><path d="M184 441.7L196 543.3L325 514.3Z" fill="#d6d6d6" stroke="#d6d6d6"></path><path d="M460 423.7L431 326L345 403.7Z" fill="#d6d6d6" stroke="#d6d6d6"></path><path d="M449 534.3L540 504.3L460 423.7Z" fill="#dcdcdc" stroke="#dcdcdc"></path><path d="M460 423.7L540 355L431 326Z" fill="#d6d6d6" stroke="#d6d6d6"></path><path d="M540 504.3L540 391.7L460 423.7Z" fill="#dcdcdc" stroke="#dcdcdc"></path><path d="M325 514.3L356 642L449 534.3Z" fill="#b7b7b7" stroke="#b7b7b7"></path><path d="M449 534.3L540 610L540 504.3Z" fill="#cccccc" stroke="#cccccc"></path><path d="M356 642L414 647L449 534.3Z" fill="#d2d2d2" stroke="#d2d2d2"></path><path d="M540 391.7L540 355L460 423.7Z" fill="#cccccc" stroke="#cccccc"></path><path d="M414 647L540 610L449 534.3Z" fill="#dcdcdc" stroke="#dcdcdc"></path><path d="M184 441.7L325 514.3L345 403.7Z" fill="#a9a9a9" stroke="#a9a9a9"></path><path d="M325 514.3L220 609L356 642Z" fill="#cfcfcf" stroke="#cfcfcf"></path><path d="M231 316L184 441.7L345 403.7Z" fill="#cfcfcf" stroke="#cfcfcf"></path><path d="M196 543.3L220 609L325 514.3Z" fill="#a9a9a9" stroke="#a9a9a9"></path><path d="M344 342L231 316L345 403.7Z" fill="#cccccc" stroke="#cccccc"></path><path d="M352 200.3L231 316L344 342Z" fill="#d9d9d9" stroke="#d9d9d9"></path><path d="M231 316L133 418.7L184 441.7Z" fill="#bebebe" stroke="#bebebe"></path><path d="M184 441.7L144 565.3L196 543.3Z" fill="#d2d2d2" stroke="#d2d2d2"></path><path d="M196 543.3L144 565.3L220 609Z" fill="#d6d6d6" stroke="#d6d6d6"></path><path d="M133 418.7L144 565.3L184 441.7Z" fill="#c5c5c5" stroke="#c5c5c5"></path><path d="M417 190.3L352 200.3L431 326Z" fill="#b7b7b7" stroke="#b7b7b7"></path><path d="M431 326L352 200.3L344 342Z" fill="#cfcfcf" stroke="#cfcfcf"></path><path d="M540 181.3L417 190.3L431 326Z" fill="#d6d6d6" stroke="#d6d6d6"></path><path d="M352 200.3L201 249.3L231 316Z" fill="#cccccc" stroke="#cccccc"></path><path d="M231 316L136 313L133 418.7Z" fill="#b0b0b0" stroke="#b0b0b0"></path><path d="M201 249.3L136 313L231 316Z" fill="#cfcfcf" stroke="#cfcfcf"></path><path d="M220 609L247 735.7L356 642Z" fill="#dcdcdc" stroke="#dcdcdc"></path><path d="M356 642L441 778.7L414 647Z" fill="#d9d9d9" stroke="#d9d9d9"></path><path d="M414 647L540 773.7L540 610Z" fill="#b0b0b0" stroke="#b0b0b0"></path><path d="M116 715.7L247 735.7L220 609Z" fill="#cccccc" stroke="#cccccc"></path><path d="M314 778.7L441 778.7L356 642Z" fill="#b7b7b7" stroke="#b7b7b7"></path><path d="M247 735.7L314 778.7L356 642Z" fill="#a9a9a9" stroke="#a9a9a9"></path><path d="M540 355L540 181.3L431 326Z" fill="#a9a9a9" stroke="#a9a9a9"></path><path d="M0 556.3L92 620L144 565.3Z" fill="#cccccc" stroke="#cccccc"></path><path d="M144 565.3L92 620L220 609Z" fill="#cfcfcf" stroke="#cfcfcf"></path><path d="M0 438.7L144 565.3L133 418.7Z" fill="#c5c5c5" stroke="#c5c5c5"></path><path d="M441 778.7L540 773.7L414 647Z" fill="#b7b7b7" stroke="#b7b7b7"></path><path d="M206 876.3L314 778.7L247 735.7Z" fill="#d2d2d2" stroke="#d2d2d2"></path><path d="M206 876.3L340 815.3L314 778.7Z" fill="#dcdcdc" stroke="#dcdcdc"></path><path d="M314 778.7L340 815.3L441 778.7Z" fill="#a9a9a9" stroke="#a9a9a9"></path><path d="M441 778.7L469 834.3L540 773.7Z" fill="#d6d6d6" stroke="#d6d6d6"></path><path d="M201 249.3L120 225.3L136 313Z" fill="#bebebe" stroke="#bebebe"></path><path d="M0 319L0 438.7L133 418.7Z" fill="#cccccc" stroke="#cccccc"></path><path d="M110 120.7L120 225.3L201 249.3Z" fill="#b7b7b7" stroke="#b7b7b7"></path><path d="M289 85.7L201 249.3L352 200.3Z" fill="#dcdcdc" stroke="#dcdcdc"></path><path d="M92 620L116 715.7L220 609Z" fill="#d2d2d2" stroke="#d2d2d2"></path><path d="M340 815.3L469 834.3L441 778.7Z" fill="#c5c5c5" stroke="#c5c5c5"></path><path d="M469 834.3L540 829.3L540 773.7Z" fill="#d9d9d9" stroke="#d9d9d9"></path><path d="M0 319L133 418.7L136 313Z" fill="#cfcfcf" stroke="#cfcfcf"></path><path d="M92 620L0 626L116 715.7Z" fill="#bebebe" stroke="#bebebe"></path><path d="M540 181.3L540 100.7L417 190.3Z" fill="#dcdcdc" stroke="#dcdcdc"></path><path d="M425 71.7L289 85.7L352 200.3Z" fill="#b0b0b0" stroke="#b0b0b0"></path><path d="M425 71.7L352 200.3L417 190.3Z" fill="#a9a9a9" stroke="#a9a9a9"></path><path d="M540 100.7L425 71.7L417 190.3Z" fill="#d2d2d2" stroke="#d2d2d2"></path><path d="M0 438.7L0 556.3L144 565.3Z" fill="#cccccc" stroke="#cccccc"></path><path d="M120 225.3L0 319L136 313Z" fill="#d9d9d9" stroke="#d9d9d9"></path><path d="M0 198.3L0 319L120 225.3Z" fill="#d6d6d6" stroke="#d6d6d6"></path><path d="M0 556.3L0 626L92 620Z" fill="#d9d9d9" stroke="#d9d9d9"></path><path d="M221 0L200 74.7L289 85.7Z" fill="#cccccc" stroke="#cccccc"></path><path d="M289 85.7L200 74.7L201 249.3Z" fill="#d9d9d9" stroke="#d9d9d9"></path><path d="M116 715.7L206 876.3L247 735.7Z" fill="#d9d9d9" stroke="#d9d9d9"></path><path d="M340 815.3L429 960L469 834.3Z" fill="#d9d9d9" stroke="#d9d9d9"></path><path d="M469 834.3L540 960L540 829.3Z" fill="#d2d2d2" stroke="#d2d2d2"></path><path d="M119 883.3L206 876.3L116 715.7Z" fill="#b7b7b7" stroke="#b7b7b7"></path><path d="M200 74.7L110 120.7L201 249.3Z" fill="#b7b7b7" stroke="#b7b7b7"></path><path d="M540 0L423 0L425 71.7Z" fill="#a9a9a9" stroke="#a9a9a9"></path><path d="M425 71.7L314 0L289 85.7Z" fill="#cfcfcf" stroke="#cfcfcf"></path><path d="M423 0L314 0L425 71.7Z" fill="#cccccc" stroke="#cccccc"></path><path d="M200 74.7L123 0L110 120.7Z" fill="#d9d9d9" stroke="#d9d9d9"></path><path d="M110 120.7L0 198.3L120 225.3Z" fill="#cfcfcf" stroke="#cfcfcf"></path><path d="M292 960L429 960L340 815.3Z" fill="#cfcfcf" stroke="#cfcfcf"></path><path d="M540 100.7L540 0L425 71.7Z" fill="#d9d9d9" stroke="#d9d9d9"></path><path d="M0 775.7L119 883.3L116 715.7Z" fill="#cccccc" stroke="#cccccc"></path><path d="M206 876.3L292 960L340 815.3Z" fill="#d2d2d2" stroke="#d2d2d2"></path><path d="M0 626L0 775.7L116 715.7Z" fill="#b7b7b7" stroke="#b7b7b7"></path><path d="M314 0L221 0L289 85.7Z" fill="#d6d6d6" stroke="#d6d6d6"></path><path d="M110 120.7L0 83.7L0 198.3Z" fill="#bebebe" stroke="#bebebe"></path><path d="M218 960L292 960L206 876.3Z" fill="#dcdcdc" stroke="#dcdcdc"></path><path d="M429 960L540 960L469 834.3Z" fill="#cccccc" stroke="#cccccc"></path><path d="M119 883.3L218 960L206 876.3Z" fill="#d2d2d2" stroke="#d2d2d2"></path><path d="M221 0L123 0L200 74.7Z" fill="#cccccc" stroke="#cccccc"></path><path d="M0 775.7L0 843.3L119 883.3Z" fill="#d6d6d6" stroke="#d6d6d6"></path><path d="M119 883.3L94 960L218 960Z" fill="#cfcfcf" stroke="#cfcfcf"></path><path d="M123 0L0 83.7L110 120.7Z" fill="#b7b7b7" stroke="#b7b7b7"></path><path d="M0 960L94 960L119 883.3Z" fill="#b0b0b0" stroke="#b0b0b0"></path><path d="M123 0L0 0L0 83.7Z" fill="#bebebe" stroke="#bebebe"></path><path d="M0 843.3L0 960L119 883.3Z" fill="#cfcfcf" stroke="#cfcfcf"></path></g></svg>