<svg id="visual" viewBox="0 0 540 960" width="540" height="960" xmlns="http://www.w3.org/2000/svg" xmlns:xlink="http://www.w3.org/1999/xlink" version="1.1"><g stroke-width="1" stroke-linejoin="bevel"><path d="M295 538.3L210 553.3L215 608Z" fill="#801159" stroke="#801159"></path><path d="M215 608L352 631L295 538.3Z" fill="#b9448d" stroke="#b9448d"></path><path d="M115 454.7L111 541.3L210 553.3Z" fill="#b43a86" stroke="#b43a86"></path><path d="M210 553.3L111 541.3L215 608Z" fill="#88115f" stroke="#88115f"></path><path d="M310 388.7L251 416.7L295 538.3Z" fill="#ae307f" stroke="#ae307f"></path><path d="M295 538.3L251 416.7L210 553.3Z" fill="#b43a86" stroke="#b43a86"></path><path d="M77 615L208 731.7L215 608Z" fill="#771053" stroke="#771053"></path><path d="M215 608L208 731.7L352 631Z" fill="#88115f" stroke="#88115f"></path><path d="M352 631L433 558.3L295 538.3Z" fill="#911265" stroke="#911265"></path><path d="M400 746.7L435 629L352 631Z" fill="#bf4e94" stroke="#bf4e94"></path><path d="M352 631L435 629L433 558.3Z" fill="#a92378" stroke="#a92378"></path><path d="M111 541.3L77 615L215 608Z" fill="#911265" stroke="#911265"></path><path d="M251 416.7L115 454.7L210 553.3Z" fill="#a92378" stroke="#a92378"></path><path d="M111 541.3L0 541.3L77 615Z" fill="#b9448d" stroke="#b9448d"></path><path d="M397 428.7L310 388.7L295 538.3Z" fill="#9a136b" stroke="#9a136b"></path><path d="M251 416.7L187 299L115 454.7Z" fill="#771053" stroke="#771053"></path><path d="M433 558.3L397 428.7L295 538.3Z" fill="#b9448d" stroke="#b9448d"></path><path d="M208 731.7L356 770.7L352 631Z" fill="#801159" stroke="#801159"></path><path d="M356 770.7L400 746.7L352 631Z" fill="#9a136b" stroke="#9a136b"></path><path d="M77 615L79 724.7L208 731.7Z" fill="#9a136b" stroke="#9a136b"></path><path d="M208 731.7L242 836.3L356 770.7Z" fill="#b43a86" stroke="#b43a86"></path><path d="M115 454.7L0 541.3L111 541.3Z" fill="#ae307f" stroke="#ae307f"></path><path d="M77 615L0 661L79 724.7Z" fill="#88115f" stroke="#88115f"></path><path d="M107 830.3L242 836.3L208 731.7Z" fill="#ae307f" stroke="#ae307f"></path><path d="M356 770.7L426 888.3L400 746.7Z" fill="#bf4e94" stroke="#bf4e94"></path><path d="M0 541.3L0 661L77 615Z" fill="#9a136b" stroke="#9a136b"></path><path d="M397 428.7L328 311L310 388.7Z" fill="#771053" stroke="#771053"></path><path d="M310 388.7L187 299L251 416.7Z" fill="#a92378" stroke="#a92378"></path><path d="M540 608L540 566.3L433 558.3Z" fill="#a31371" stroke="#a31371"></path><path d="M433 558.3L540 403.7L397 428.7Z" fill="#801159" stroke="#801159"></path><path d="M397 428.7L427 289L328 311Z" fill="#a92378" stroke="#a92378"></path><path d="M540 608L433 558.3L435 629Z" fill="#801159" stroke="#801159"></path><path d="M540 749.7L540 608L435 629Z" fill="#bf4e94" stroke="#bf4e94"></path><path d="M328 311L187 299L310 388.7Z" fill="#911265" stroke="#911265"></path><path d="M115 454.7L0 409.7L0 541.3Z" fill="#ae307f" stroke="#ae307f"></path><path d="M79 724.7L107 830.3L208 731.7Z" fill="#a31371" stroke="#a31371"></path><path d="M0 756.7L107 830.3L79 724.7Z" fill="#771053" stroke="#771053"></path><path d="M187 299L119 312L115 454.7Z" fill="#a92378" stroke="#a92378"></path><path d="M242 836.3L295 875.3L356 770.7Z" fill="#a31371" stroke="#a31371"></path><path d="M400 746.7L540 749.7L435 629Z" fill="#b43a86" stroke="#b43a86"></path><path d="M246 960L295 875.3L242 836.3Z" fill="#a92378" stroke="#a92378"></path><path d="M119 312L0 409.7L115 454.7Z" fill="#801159" stroke="#801159"></path><path d="M0 661L0 756.7L79 724.7Z" fill="#a31371" stroke="#a31371"></path><path d="M540 566.3L540 403.7L433 558.3Z" fill="#bf4e94" stroke="#bf4e94"></path><path d="M540 829.3L540 749.7L400 746.7Z" fill="#9a136b" stroke="#9a136b"></path><path d="M540 403.7L427 289L397 428.7Z" fill="#b43a86" stroke="#b43a86"></path><path d="M328 311L204 224.3L187 299Z" fill="#ae307f" stroke="#ae307f"></path><path d="M295 875.3L426 888.3L356 770.7Z" fill="#911265" stroke="#911265"></path><path d="M0 756.7L0 820.3L107 830.3Z" fill="#a92378" stroke="#a92378"></path><path d="M107 960L246 960L242 836.3Z" fill="#771053" stroke="#771053"></path><path d="M187 299L82 244.3L119 312Z" fill="#bf4e94" stroke="#bf4e94"></path><path d="M119 312L0 315L0 409.7Z" fill="#a31371" stroke="#a31371"></path><path d="M352 196.3L204 224.3L328 311Z" fill="#ae307f" stroke="#ae307f"></path><path d="M82 244.3L0 315L119 312Z" fill="#9a136b" stroke="#9a136b"></path><path d="M204 224.3L82 244.3L187 299Z" fill="#ae307f" stroke="#ae307f"></path><path d="M426 888.3L540 829.3L400 746.7Z" fill="#911265" stroke="#911265"></path><path d="M107 960L242 836.3L107 830.3Z" fill="#771053" stroke="#771053"></path><path d="M295 875.3L290 960L426 888.3Z" fill="#88115f" stroke="#88115f"></path><path d="M246 960L290 960L295 875.3Z" fill="#a92378" stroke="#a92378"></path><path d="M426 888.3L540 960L540 829.3Z" fill="#911265" stroke="#911265"></path><path d="M430 189.3L352 196.3L427 289Z" fill="#911265" stroke="#911265"></path><path d="M427 289L352 196.3L328 311Z" fill="#88115f" stroke="#88115f"></path><path d="M0 84.7L0 250.3L82 244.3Z" fill="#ae307f" stroke="#ae307f"></path><path d="M540 403.7L540 287L427 289Z" fill="#b43a86" stroke="#b43a86"></path><path d="M0 960L107 960L107 830.3Z" fill="#88115f" stroke="#88115f"></path><path d="M127 83.7L82 244.3L204 224.3Z" fill="#801159" stroke="#801159"></path><path d="M82 244.3L0 250.3L0 315Z" fill="#88115f" stroke="#88115f"></path><path d="M540 201.3L430 189.3L427 289Z" fill="#911265" stroke="#911265"></path><path d="M290 960L441 960L426 888.3Z" fill="#b43a86" stroke="#b43a86"></path><path d="M0 820.3L0 960L107 830.3Z" fill="#a31371" stroke="#a31371"></path><path d="M540 287L540 201.3L427 289Z" fill="#911265" stroke="#911265"></path><path d="M441 960L540 960L426 888.3Z" fill="#bf4e94" stroke="#bf4e94"></path><path d="M408 78.7L352 196.3L430 189.3Z" fill="#771053" stroke="#771053"></path><path d="M408 78.7L338 83.7L352 196.3Z" fill="#911265" stroke="#911265"></path><path d="M352 196.3L202 79.7L204 224.3Z" fill="#88115f" stroke="#88115f"></path><path d="M338 83.7L202 79.7L352 196.3Z" fill="#88115f" stroke="#88115f"></path><path d="M202 79.7L127 83.7L204 224.3Z" fill="#801159" stroke="#801159"></path><path d="M540 98.7L408 78.7L430 189.3Z" fill="#b43a86" stroke="#b43a86"></path><path d="M338 83.7L212 0L202 79.7Z" fill="#9a136b" stroke="#9a136b"></path><path d="M540 201.3L540 98.7L430 189.3Z" fill="#88115f" stroke="#88115f"></path><path d="M106 0L0 84.7L127 83.7Z" fill="#b9448d" stroke="#b9448d"></path><path d="M127 83.7L0 84.7L82 244.3Z" fill="#b9448d" stroke="#b9448d"></path><path d="M333 0L212 0L338 83.7Z" fill="#911265" stroke="#911265"></path><path d="M202 79.7L212 0L127 83.7Z" fill="#b43a86" stroke="#b43a86"></path><path d="M333 0L338 83.7L408 78.7Z" fill="#b9448d" stroke="#b9448d"></path><path d="M414 0L333 0L408 78.7Z" fill="#a92378" stroke="#a92378"></path><path d="M212 0L106 0L127 83.7Z" fill="#b43a86" stroke="#b43a86"></path><path d="M540 0L414 0L408 78.7Z" fill="#9a136b" stroke="#9a136b"></path><path d="M106 0L0 0L0 84.7Z" fill="#88115f" stroke="#88115f"></path><path d="M540 98.7L540 0L408 78.7Z" fill="#a31371" stroke="#a31371"></path></g></svg>